# Created by MKDS Course Modifier
mtllib Cold Storage Warehouse 2.mtl
g polygon0
usemtl p
v -48.5 48.91797 50.92578
v -43.92188 53.21484 50.92578
v -43.92188 57.18359 50.92578
v -51.5 50.48438 50.92578
v -48.5 4 50.92578
v -48.5 48.91797 50.92578
v -51.5 50.48438 50.92578
v -51.5 4 50.92578
v -51.5 4 50.92578
v -51.5 50.48438 50.92578
v -51.5 50.48438 -50.92578
v -51.5 4 -50.92578
v -51.5 50.48438 50.92578
v -43.92188 57.18359 50.92578
v -43.92188 57.18359 -50.92578
v -51.5 50.48438 -50.92578
vn 0 0 0.9980469
vn 0 0 0.9980469
vn 0 0 0.9980469
vn 0 0 0.9980469
vn 0 0 0.9980469
vn 0 0 0.9980469
vn 0 0 0.9980469
vn 0 0 0.9980469
vn -1 0 0
vn -1 0 0
vn -1 0 0
vn -1 0 0
vn -0.6621094 0.75 0
vn -0.6621094 0.75 0
vn -0.6621094 0.75 0
vn -0.6621094 0.75 0
vt 0.4492188 -0.3945313
vt 0.4492188 -0.1289063
vt 0.5820313 -0.015625
vt 0.5820313 -0.4726563
vt 0.4492188 -2.992188
vt 0.4492188 -2.472656
vt 0.5820313 -2.453125
vt 0.5820313 -2.988281
vt 0.5820313 -2.984375
vt 0.5820313 -2.488281
vt -5.546875 -2.480469
vt -5.542969 -2.984375
vt 0.5820313 -0.4726563
vt 0.5820313 -0.015625
vt -5.546875 -0.015625
vt -5.546875 -0.4726563
f 1/1/1 2/2/2 3/3/3 4/4/4
f 5/5/5 6/6/6 7/7/7 8/8/8
f 9/9/9 10/10/10 11/11/11 12/12/12
f 13/13/13 14/14/14 15/15/15 16/16/16
g polygon1
usemtl s
v -48 2 52
v -56 2 60
v 48 2 52
v 56 2 60
v 48 2 -52
v 56 2 -60
v -48 2 -52
v -56 2 -60
v -48 2 52
v -56 2 60
vn 0 0.9980469 0
vn 0 0.9980469 0
vn 0 0.9980469 0
vn 0 0.9980469 0
vn 0 0.9980469 0
vn 0 0.9980469 0
vn 0 0.9980469 0
vn 0 0.9980469 0
vn 0 0.9980469 0
vn 0 0.9980469 0
vt 0.5 -0.875
vt 0.5 -0.125
vt 0.5 -0.875
vt 0.5 -0.125
vt 0.5 -0.875
vt 0.5 -0.125
vt 0.5 -0.875
vt 0.5 -0.125
vt 0.5 -0.875
vt 0.5 -0.125
f 17/17/17 18/18/18 19/19/19
f 18/18/18 20/20/20 19/19/19
f 19/19/19 20/20/20 21/21/21
f 20/20/20 22/22/22 21/21/21
f 21/21/21 22/22/22 23/23/23
f 22/22/22 24/24/24 23/23/23
f 23/23/23 24/24/24 25/25/25
f 24/24/24 26/26/26 25/25/25
v -48 2 -52
v -48 2 52
v 48 2 52
v 48 2 -52
vn 0 0.9980469 0
vn 0 0.9980469 0
vn 0 0.9980469 0
vn 0 0.9980469 0
vt 0.5 -0.875
vt 0.5 -0.875
vt 0.5 -0.875
vt 0.5 -0.875
f 27/27/27 28/28/28 29/29/29 30/30/30
g polygon2
usemtl a
v 53 64 58
v 53 68 58
v 29.49609 70.92969 58
v 30.23047 74.94922 58
v 4 75.18359 58
v 7.460938 79.10938 58
vn 0 0 0.9980469
vn 0 0 0.9980469
vn 0 0 0.9980469
vn 0 0 0.9980469
vn 0 0 0.9980469
vn 0 0 0.9980469
vt 0.01953125 -0.2421875
vt 0.01953125 -0.01953125
vt 0.01953125 -0.2421875
vt 0.01953125 -0.01953125
vt 0.01757813 -0.2421875
vt 0.01953125 -0.01953125
f 31/31/31 32/32/32 33/33/33
f 32/32/32 34/34/34 33/33/33
f 33/33/33 34/34/34 35/35/35
f 34/34/34 36/36/36 35/35/35
v 4 75.18359 58
v 0.2304688 79.10938 58
v -21.49609 70.92969 58
v -22.38281 74.94922 58
v -45 64 58
v -45 68 58
vn 0 0 0.9980469
vn 0 0 0.9980469
vn 0 0 0.9980469
vn 0 0 0.9980469
vn 0 0 0.9980469
vn 0 0 0.9980469
vt 0.01757813 -0.2421875
vt 0.01953125 -0.01953125
vt 0.01953125 -0.2421875
vt 0.01953125 -0.01953125
vt 0.01953125 -0.2421875
vt 0.01953125 -0.01953125
f 37/37/37 38/38/38 39/39/39
f 38/38/38 40/40/40 39/39/39
f 39/39/39 40/40/40 41/41/41
f 40/40/40 42/42/42 41/41/41
v 7.460938 79.10938 58
v 30.23047 74.94922 58
v 30.23047 74.94922 -58
v 7.460938 79.10938 -58
v 53 68 58
v 53 68 -58
v 30.23047 74.94922 -58
v 30.23047 74.94922 58
v -45 68 58
v -22.38281 74.94922 58
v -22.38281 74.94922 -58
v -45 68 -58
v 0.2304688 79.10938 58
v 0.2304688 79.10938 -58
v -22.38281 74.94922 -58
v -22.38281 74.94922 58
v 7.460938 79.10938 58
v 7.460938 79.10938 -58
v 0.2304688 79.10938 -58
v 0.2304688 79.10938 58
v 53 64 -58
v 53 68 -58
v 53 68 58
v 53 64 58
v -45 68 -58
v -45 64 -58
v -45 64 58
v -45 68 58
vn 0.1796875 0.984375 0
vn 0.1796875 0.984375 0
vn 0.1796875 0.984375 0
vn 0.1796875 0.984375 0
vn 0.2910156 0.9570313 0
vn 0.2910156 0.9570313 0
vn 0.2910156 0.9570313 0
vn 0.2910156 0.9570313 0
vn -0.2929688 0.9550781 0
vn -0.2929688 0.9550781 0
vn -0.2929688 0.9550781 0
vn -0.2929688 0.9550781 0
vn -0.1816406 0.984375 0
vn -0.1816406 0.984375 0
vn -0.1816406 0.984375 0
vn -0.1816406 0.984375 0
vn 0 0.9980469 0
vn 0 0.9980469 0
vn 0 0.9980469 0
vn 0 0.9980469 0
vn 0.9980469 0 0
vn 0.9980469 0 0
vn 0.9980469 0 0
vn 0.9980469 0 0
vn -1 0 0
vn -1 0 0
vn -1 0 0
vn -1 0 0
vt 0.8359375 -9.597656
vt 0.4394531 -9.597656
vt 0.4394531 -0.265625
vt 0.8378906 -0.2617188
vt 0.04492188 -9.59375
vt 0.0390625 -0.2734375
vt 0.4394531 -0.265625
vt 0.4394531 -9.597656
vt 0.04492188 -9.59375
vt 0.4394531 -9.597656
vt 0.4394531 -0.265625
vt 0.0390625 -0.2734375
vt 0.8359375 -9.597656
vt 0.8378906 -0.2617188
vt 0.4394531 -0.265625
vt 0.4394531 -9.597656
vt 0.9941406 -6.488281
vt 0.9921875 -1.484375
vt 0.8515625 -1.484375
vt 0.8496094 -6.488281
vt 0.01953125 -0.2421875
vt 0.01953125 -0.01953125
vt 0.01953125 -0.01953125
vt 0.01953125 -0.2421875
vt 0.01953125 -0.01953125
vt 0.01953125 -0.2421875
vt 0.01953125 -0.2421875
vt 0.01953125 -0.01953125
f 43/43/43 44/44/44 45/45/45 46/46/46
f 47/47/47 48/48/48 49/49/49 50/50/50
f 51/51/51 52/52/52 53/53/53 54/54/54
f 55/55/55 56/56/56 57/57/57 58/58/58
f 59/59/59 60/60/60 61/61/61 62/62/62
f 63/63/63 64/64/64 65/65/65 66/66/66
f 67/67/67 68/68/68 69/69/69 70/70/70
v 7.460938 79.10938 58
v 0.2304688 79.10938 58
v 4 75.18359 58
vn 0 0 0.9980469
vn 0 0 0.9980469
vn 0 0 0.9980469
vt 0.01953125 -0.01953125
vt 0.01953125 -0.01953125
vt 0.01757813 -0.2421875
f 71/71/71 72/72/72 73/73/73
g polygon3
usemtl e
v 51.87109 4 -28
v 51.87109 64 -27.87891
v 51.87109 4 0
v 51.87109 64 -0.01953125
v 51.87109 4 28
v 51.87109 64 27.84375
vn 0.9980469 0 0
vn 0.9980469 0 0
vn 0.9980469 0 0
vn 0.9980469 0 0
vn 0.9980469 0 0
vn 0.9980469 0 0
vt 1.609375 0.015625
vt 1.609375 0.984375
vt 1.890625 0.015625
vt 1.890625 0.984375
vt 1.609375 0.015625
vt 1.609375 0.984375
f 74/74/74 75/75/75 76/76/76
f 75/75/75 77/77/77 76/76/76
f 76/76/76 77/77/77 78/78/78
f 77/77/77 79/79/79 78/78/78
v -44 64 -27.87891
v -44 4 -28
v -44 64 -0.01953125
v -44 4 0
v -44 64 27.84375
v -44 4 28
vn -1 0 0
vn -1 0 0
vn -1 0 0
vn -1 0 0
vn -1 0 0
vn -1 0 0
vt 1.609375 0.984375
vt 1.609375 0.015625
vt 1.890625 0.984375
vt 1.890625 0.015625
vt 1.609375 0.984375
vt 1.609375 0.015625
f 80/80/80 81/81/81 82/82/82
f 81/81/81 83/83/83 82/82/82
f 82/82/82 83/83/83 84/84/84
f 83/83/83 85/85/85 84/84/84
v 51.87109 4 55.85156
v 51.87109 33 55.85156
v 14 4 55.85156
v 13.96875 33 55.85156
v -23 4 55.85156
v -23 33 55.85156
vn 0 0 0.9980469
vn 0 0 0.9980469
vn 0 0 0.9980469
vn 0 0 0.9980469
vn 0 0 0.9980469
vn 0 0 0.9980469
vt 1.984375 0.015625
vt 1.984375 0.4921875
vt 1.328125 0.015625
vt 1.328125 0.4921875
vt 1.921875 0.015625
vt 1.921875 0.4921875
f 86/86/86 87/87/87 88/88/88
f 87/87/87 89/89/89 88/88/88
f 88/88/88 89/89/89 90/90/90
f 89/89/89 91/91/91 90/90/90
v -23 64 55.85156
v -23 33 55.85156
v 13.94141 64 55.85156
v 13.96875 33 55.85156
v 51.87109 64 55.85156
v 51.87109 33 55.85156
vn 0 0 0.9980469
vn 0 0 0.9980469
vn 0 0 0.9980469
vn 0 0 0.9980469
vn 0 0 0.9980469
vn 0 0 0.9980469
vt 1.921875 0.984375
vt 1.921875 0.4921875
vt 1.328125 0.984375
vt 1.328125 0.4921875
vt 1.984375 0.984375
vt 1.984375 0.4921875
f 92/92/92 93/93/93 94/94/94
f 93/93/93 95/95/95 94/94/94
f 94/94/94 95/95/95 96/96/96
f 95/95/95 97/97/97 96/96/96
v -45 64 58
v 4 64 58
v -21.49609 70.92969 58
v 4 75.18359 58
vn 0 0 0.9980469
vn 0 0 0.9980469
vn 0 0 0.9980469
vn 0 0 0.9980469
vt -0.2050781 -0.984375
vt -0.2050781 -0.203125
vt -0.0859375 -0.609375
vt -0.01367188 -0.203125
f 98/98/98 99/99/99 100/100/100
f 99/99/99 101/101/101 100/100/100
v 4 75.18359 58
v 4 64 58
v 29.49609 70.92969 58
v 53 64 58
vn 0 0 0.9980469
vn 0 0 0.9980469
vn 0 0 0.9980469
vn 0 0 0.9980469
vt -0.01367188 -0.203125
vt -0.2050781 -0.203125
vt -0.0859375 -0.609375
vt -0.2050781 -0.984375
f 102/102/102 103/103/103 104/104/104
f 103/103/103 105/105/105 104/104/104
v -23.89453 4 40
v -40.10547 4 40
v -41 4 55.85156
v -23 4 55.85156
v -23.89453 33 40
v -40.10547 33 40
v -40.10547 4 40
v -23.89453 4 40
v 51.87109 4 28
v 51.87109 64 27.84375
v 51.87109 33 55.85156
v 51.87109 4 55.85156
v -41 64 55.85156
v -41 33 55.85156
v -23 33 55.85156
v -23 64 55.85156
v -40.10547 4 40
v -40.10547 33 40
v -41 33 55.85156
v -41 4 55.85156
v -23.89453 33 40
v -23.89453 4 40
v -23 4 55.85156
v -23 33 55.85156
v -44 64 55.85156
v -44 4 55.85156
v -41 4 55.85156
v -41 33 55.85156
v 51.87109 4 -56
v 51.87109 64 -55.73828
v 51.87109 64 -27.87891
v 51.87109 4 -28
v -44 64 -55.73828
v -44 4 -56
v -44 4 -28
v -44 64 -27.87891
v -44 64 27.84375
v -44 4 28
v -44 4 55.85156
v -44 64 55.85156
vn 0 0.9980469 0
vn 0 0.9980469 0
vn 0 0.9980469 0
vn 0 0.9980469 0
vn 0 0 0.9980469
vn 0 0 0.9980469
vn 0 0 0.9980469
vn 0 0 0.9980469
vn 0.9980469 0 0
vn 0.9980469 0 0
vn 0.9980469 0 0
vn 0.9980469 0 0
vn 0 0 0.9980469
vn 0 0 0.9980469
vn 0 0 0.9980469
vn 0 0 0.9980469
vn 0.9980469 0 0.05664063
vn 0.9980469 0 0.05664063
vn 0.9980469 0 0.05664063
vn 0.9980469 0 0.05664063
vn -0.9980469 0 0.05664063
vn -0.9980469 0 0.05664063
vn -0.9980469 0 0.05664063
vn -0.9980469 0 0.05664063
vn 0 0 0.9980469
vn 0 0 0.9980469
vn 0 0 0.9980469
vn 0 0 0.9980469
vn 0.9980469 0 0
vn 0.9980469 0 0
vn 0.9980469 0 0
vn 0.9980469 0 0
vn -1 0 0
vn -1 0 0
vn -1 0 0
vn -1 0 0
vn -1 0 0
vn -1 0 0
vn -1 0 0
vn -1 0 0
vt 0.171875 -0.6992188
vt 0.009765625 -0.6992188
vt 0.01171875 -0.984375
vt 0.171875 -0.984375
vt 0.171875 -0.5429688
vt 0.01171875 -0.5429688
vt 0.009765625 -0.6738281
vt 0.171875 -0.6738281
vt 1.671875 0.015625
vt 1.671875 0.984375
vt 1.984375 0.4921875
vt 1.984375 0.015625
vt 1.015625 0.984375
vt 1.015625 0.4921875
vt 1.296875 0.4921875
vt 1.296875 0.984375
vt 0.1972656 -0.796875
vt 0.2949219 -0.796875
vt 0.2949219 -0.984375
vt 0.1972656 -0.984375
vt 0.2949219 -0.796875
vt 0.1972656 -0.796875
vt 0.1972656 -0.984375
vt 0.2949219 -0.984375
vt 1.984375 0.984375
vt 1.984375 0.015625
vt 1.859375 0.015625
vt 1.859375 0.4921875
vt 1.984375 0.015625
vt 1.984375 0.984375
vt 1.671875 0.984375
vt 1.671875 0.015625
vt 1.984375 0.984375
vt 1.984375 0.015625
vt 1.671875 0.015625
vt 1.671875 0.984375
vt 1.671875 0.984375
vt 1.671875 0.015625
vt 1.984375 0.015625
vt 1.984375 0.984375
f 106/106/106 107/107/107 108/108/108 109/109/109
f 110/110/110 111/111/111 112/112/112 113/113/113
f 114/114/114 115/115/115 116/116/116 117/117/117
f 118/118/118 119/119/119 120/120/120 121/121/121
f 122/122/122 123/123/123 124/124/124 125/125/125
f 126/126/126 127/127/127 128/128/128 129/129/129
f 130/130/130 131/131/131 132/132/132 133/133/133
f 134/134/134 135/135/135 136/136/136 137/137/137
f 138/138/138 139/139/139 140/140/140 141/141/141
f 142/142/142 143/143/143 144/144/144 145/145/145
v -44 64 55.85156
v -41 33 55.85156
v -41 64 55.85156
v 51.87109 64 27.84375
v 51.87109 64 55.85156
v 51.87109 33 55.85156
vn 0 0 0.9980469
vn 0 0 0.9980469
vn 0 0 0.9980469
vn 0.9980469 0 0
vn 0.9980469 0 0
vn 0.9980469 0 0
vt 1.984375 0.984375
vt 1.859375 0.4921875
vt 1.859375 0.984375
vt 1.671875 0.984375
vt 1.984375 0.984375
vt 1.984375 0.4921875
f 146/146/146 147/147/147 148/148/148
f 149/149/149 150/150/150 151/151/151
