# Created by MKDS Course Modifier
mtllib Striaton City Building 2.mtl
g polygon0
usemtl h_kage_1
v 40 2 -36.24609
v -44 2 -36.24609
v 40 2 -29.24609
v -38 2 -29.24609
vn 0 0.9980469 0
vn 0 0.9980469 0
vn 0 0.9980469 0
vn 0 0.9980469 0
vt -0.640625 -0.078125
vt -1.640625 -0.078125
vt -0.640625 -0.9609375
vt -1.570313 -0.9609375
f 1/1/1 2/2/2 3/3/3
f 2/2/2 4/4/4 3/3/3
v -38 2 31.88281
v 30 2 31.88281
v 40 2 -29.24609
v -38 2 -29.24609
v -44 2 40
v -38 2 31.88281
v -38 2 -29.24609
v -44 2 -36.24609
v -44 2 40
v 30 2 40
v 30 2 31.88281
v -38 2 31.88281
vn 0 0.9980469 0
vn 0 0.9980469 0
vn 0 0.9980469 0
vn 0 0.9980469 0
vn 0 0.9980469 0
vn 0 0.9980469 0
vn 0 0.9980469 0
vn 0 0.9980469 0
vn 0 0.9980469 0
vn 0 0.9980469 0
vn 0 0.9980469 0
vn 0 0.9980469 0
vt 0.3984375 -0.9375
vt 0.875 -0.9375
vt 0.9375 -0.34375
vt 0.3828125 -0.34375
vt -4.296875 -0.0703125
vt -4.398438 -0.9375
vt -5.203125 -0.9375
vt -5.296875 -0.0703125
vt -3.28125 -0.1171875
vt -2.382813 -0.1171875
vt -2.382813 -0.9609375
vt -3.210938 -0.9609375
f 5/5/5 6/6/6 7/7/7 8/8/8
f 9/9/9 10/10/10 11/11/11 12/12/12
f 13/13/13 14/14/14 15/15/15 16/16/16
v 40 2 -29.24609
v 30 2 31.88281
v 40 2 31.88281
v 30 2 31.88281
v 30 2 40
v 40 2 31.88281
v -44 2 -36.24609
v -38 2 -29.24609
v -44 2 -36.24609
vn 0 0.9980469 0
vn 0 0.9980469 0
vn 0 0.9980469 0
vn 0 0.9980469 0
vn 0 0.9980469 0
vn 0 0.9980469 0
vn 0 0.9980469 0
vn 0 0.9980469 0
vn 0 0.9980469 0
vt 0.9375 -0.34375
vt 0.875 -0.9375
vt 0.9375 -0.9375
vt -5.828125 -0.9609375
vt -5.890625 -0.125
vt -5.65625 -0.125
vt -1.640625 -0.078125
vt -1.570313 -0.9609375
vt -1.640625 -0.078125
f 17/17/17 18/18/18 19/19/19
f 20/20/20 21/21/21 22/22/22
f 23/23/23 24/24/24 25/25/25
g polygon1
usemtl h_mado_1
v -36 83.11328 32
v -36 44 32
v -36 83.11328 30
v -36 44 30
v -22.99609 83.11328 36
v -23.00391 44 36
vn 0.9980469 0 0
vn 0.9980469 0 0
vn 0.5390625 0 0.8417969
vn 0.5390625 0 0.8417969
vn -0.4199219 0 0.9082031
vn -0.4199219 0 0.9082031
vt 0 1.003906
vt 0 -0.9960938
vt 0.078125 1
vt 0.078125 -0.9960938
vt 1 1
vt 1 -0.9960938
f 26/26/26 27/27/27 28/28/28
f 27/27/27 29/29/29 28/28/28
f 28/28/28 29/29/29 30/30/30
f 29/29/29 31/31/31 30/30/30
v 4.015625 83.11328 30
v 3.984375 44 30
v 33 83.11328 30
v 33 44 30
vn 0 0 0.9980469
vn 0 0 0.9980469
vn 0 0 0.9980469
vn 0 0 0.9980469
vt 3 1
vt 3 -0.9960938
vt 4 1
vt 4 -1
f 32/32/32 33/33/33 34/34/34
f 33/33/33 35/35/35 34/34/34
v -9.25 20.52734 30
v -9.25 39.16406 30
v -25.97266 39.16406 30
v -25.96484 20.52734 30
v -35 5.066406 -27
v -35 5.066406 -28.80859
v -35 83.11328 -28.80859
v -35 83.11328 -27
v -25 44 37.41797
v -25 44 35.40234
v -25 83.11328 35.40234
v -25 83.11328 37.41797
v -36 23 26
v -36 82.29297 26
v -36 82.29297 -24
v -36 23 -24
v 34 23 -23
v 34 82.29297 -23
v 34 82.29297 27
v 34 23 27
v -36 4.933594 -28
v -36 82.29297 -28
v 34 82.29297 -27
v 34 4.933594 -27
v -8.011719 44 36
v -7.988281 83.11328 36
v -22.99609 83.11328 36
v -23.00391 44 36
v 33 11.66016 30
v 33 44 30
v 3.984375 44 30
v 4 11.66016 30
v 3.984375 44 30
v 4.015625 83.11328 30
v -7.988281 83.11328 36
v -8.011719 44 36
vn 0 0 0.9980469
vn 0 0 0.9980469
vn 0 0 0.9980469
vn 0 0 0.9980469
vn 0.9980469 0 0
vn 0.9980469 0 0
vn 0.9980469 0 0
vn 0.9980469 0 0
vn 0.9980469 0 0
vn 0.9980469 0 0
vn 0.9980469 0 0
vn 0.9980469 0 0
vn -1 0 0
vn -1 0 0
vn -1 0 0
vn -1 0 0
vn 0.9980469 0 0
vn 0.9980469 0 0
vn 0.9980469 0 0
vn 0.9980469 0 0
vn 0.01367188 0 -1
vn 0.01367188 0 -1
vn 0.01367188 0 -1
vn 0.01367188 0 -1
vn 0 0 0.9980469
vn 0 0 0.9980469
vn 0 0 0.9980469
vn 0 0 0.9980469
vn 0 0 0.9980469
vn 0 0 0.9980469
vn 0 0 0.9980469
vn 0 0 0.9980469
vn 0.4472656 0 0.8945313
vn 0.4472656 0 0.8945313
vn 0.4472656 0 0.8945313
vn 0.4472656 0 0.8945313
vt 4 -2
vt 4 -1
vt 3 -0.9960938
vt 3.011719 -2
vt 0 -0.53125
vt 0.07421875 -0.53125
vt 0.07421875 0
vt 0 0
vt 0.0546875 -0.5
vt 0.0546875 0
vt 0.09765625 0
vt 0.09765625 -0.5
vt 4 -2
vt 4 1
vt 1 1
vt 1 -2
vt 4 -2
vt 4 1
vt 1 1
vt 1 -2
vt 4 -2
vt 4 1
vt 1 1
vt 1 -2
vt 2 -0.9960938
vt 2 1
vt 1 1
vt 1 -0.9960938
vt 4 -2
vt 4 -1
vt 3 -0.9960938
vt 3.011719 -2
vt 3 -0.9960938
vt 3 1
vt 2 1
vt 2 -0.9960938
f 36/36/36 37/37/37 38/38/38 39/39/39
f 40/40/40 41/41/41 42/42/42 43/43/43
f 44/44/44 45/45/45 46/46/46 47/47/47
f 48/48/48 49/49/49 50/50/50 51/51/51
f 52/52/52 53/53/53 54/54/54 55/55/55
f 56/56/56 57/57/57 58/58/58 59/59/59
f 60/60/60 61/61/61 62/62/62 63/63/63
f 64/64/64 65/65/65 66/66/66 67/67/67
f 68/68/68 69/69/69 70/70/70 71/71/71
g polygon2
usemtl c1_build01_1_1
v -38 63.78906 -29
v -38 85.57031 -29
v -1 63.78906 -29
v -1 85.57031 -29
v 36 63.78906 -29
v 36 85.57031 -29
vn 0.01367188 0 -1
vn 0.01367188 0 -1
vn 0.01367188 0 -1
vn 0.01367188 0 -1
vn 0.01367188 0 -1
vn 0.01367188 0 -1
vt 6.015625 0.5
vt 6.015625 1
vt 6.53125 0.5
vt 6.53125 1
vt 6.015625 0.5
vt 6.015625 1
f 72/72/72 73/73/73 74/74/74
f 73/73/73 75/75/75 74/74/74
f 74/74/74 75/75/75 76/76/76
f 75/75/75 77/77/77 76/76/76
v -38 43.82422 -29
v -38 63.78906 -29
v -1 43.82422 -29
v -1 63.78906 -29
v 36 43.82422 -29
v 36 63.78906 -29
vn 0.01367188 0 -1
vn 0.01367188 0 -1
vn 0.01367188 0 -1
vn 0.01367188 0 -1
vn 0.01367188 0 -1
vn 0.01367188 0 -1
vt 6.015625 0.5
vt 6.015625 1
vt 6.53125 0.5
vt 6.53125 1
vt 6.015625 0.5
vt 6.015625 1
f 78/78/78 79/79/79 80/80/80
f 79/79/79 81/81/81 80/80/80
f 80/80/80 81/81/81 82/82/82
f 81/81/81 83/83/83 82/82/82
v -38 19 -29
v -38 43.82422 -29
v -1 19 -29
v -1 43.82422 -29
v 36 19 -29
v 36 43.82422 -29
vn 0.01367188 0 -1
vn 0.01367188 0 -1
vn 0.01367188 0 -1
vn 0.01367188 0 -1
vn 0.01367188 0 -1
vn 0.01367188 0 -1
vt 6.015625 0.5
vt 6.015625 1
vt 6.53125 0.5
vt 6.53125 1
vt 6.015625 0.5
vt 6.015625 1
f 84/84/84 85/85/85 86/86/86
f 85/85/85 87/87/87 86/86/86
f 86/86/86 87/87/87 88/88/88
f 87/87/87 89/89/89 88/88/88
v -31 86.39063 -7.410156
v -17 86.39063 -7.410156
v -17 97.04688 -20.41016
v -31 97.04688 -20.41016
v -9 43.93359 38
v -7 43.82422 32
v -27 43.82422 32
v -25 43.71484 38
v -7 19 32
v -7 43.82422 32
v -27 43.82422 32
v -27 19 32
v 36 19 32
v 36 43.82422 32
v 4 43.82422 32
v 4 19 32
v 36 43.82422 32
v 36 63.78906 32
v 4 63.78906 32
v 4 43.82422 32
v -9 85.57031 38
v -25 85.57031 38
v -25 63.78906 38
v -9 63.78906 38
v 4 85.57031 32
v -9 85.57031 38
v -9 63.78906 38
v 4 63.78906 32
v -9 63.78906 38
v -25 63.78906 38
v -25 43.71484 38
v -9 43.93359 38
v -38 63.78906 32
v -38 43.82422 32
v -25 43.71484 38
v -25 63.78906 38
v -7 43.82422 32
v -7 19 32
v 4 19 32
v 4 43.82422 32
v 36 63.78906 32
v 36 63.78906 -29
v 36 85.57031 -29
v 36 85.57031 32
v -38 63.78906 -29
v -38 63.78906 32
v -38 85.57031 32
v -38 85.57031 -29
v -25 85.57031 38
v -38 85.57031 32
v -38 63.78906 32
v -25 63.78906 38
v 36 85.57031 32
v 4 85.57031 32
v 4 63.78906 32
v 36 63.78906 32
v 36 19 32
v 36 19 -29
v 36 43.82422 -29
v 36 43.82422 32
v -38 19 -29
v -38 19 32
v -38 43.82422 32
v -38 43.82422 -29
v -38 19 32
v -27 19 32
v -27 43.82422 32
v -38 43.82422 32
v 36 43.82422 32
v 36 43.82422 -29
v 36 63.78906 -29
v 36 63.78906 32
v -38 43.82422 -29
v -38 43.82422 32
v -38 63.78906 32
v -38 63.78906 -29
v -9 43.93359 38
v 4 43.82422 32
v 4 63.78906 32
v -9 63.78906 38
v -29 32.17188 32
v -29 32.17188 33
v -29 43.82422 36
v -29 43.82422 32
v -27 32.17188 33
v -27 32.17188 32
v -27 43.82422 32
v -27 43.82422 36
v -29 32.17188 33
v -27 32.17188 33
v -27 43.82422 36
v -29 43.82422 36
v 15 86.39063 -7.410156
v 29 86.39063 -7.410156
v 29 97.04688 -20.41016
v 15 97.04688 -20.41016
v -7 32.17188 32
v -7 32.17188 33
v -7 43.82422 36
v -7 43.82422 32
v -5 32.17188 33
v -5 32.17188 32
v -5 43.82422 32
v -5 43.82422 36
v -7 32.17188 33
v -5 32.17188 33
v -5 43.82422 36
v -7 43.82422 36
vn 0 0.7734375 0.6347656
vn 0 0.7734375 0.6347656
vn 0 0.7734375 0.6347656
vn 0 0.7734375 0.6347656
vn 0 0.9980469 0
vn 0 0.9980469 0
vn 0 0.9980469 0
vn 0 0.9980469 0
vn 0 0 0.9980469
vn 0 0 0.9980469
vn 0 0 0.9980469
vn 0 0 0.9980469
vn 0 0 0.9980469
vn 0 0 0.9980469
vn 0 0 0.9980469
vn 0 0 0.9980469
vn 0 0 0.9980469
vn 0 0 0.9980469
vn 0 0 0.9980469
vn 0 0 0.9980469
vn 0 0 0.9980469
vn 0 0 0.9980469
vn 0 0 0.9980469
vn 0 0 0.9980469
vn 0.4472656 0 0.8945313
vn 0.4472656 0 0.8945313
vn 0.4472656 0 0.8945313
vn 0.4472656 0 0.8945313
vn 0 0 0.9980469
vn 0 0 0.9980469
vn 0 0 0.9980469
vn 0 0 0.9980469
vn -0.4199219 0 0.9082031
vn -0.4199219 0 0.9082031
vn -0.4199219 0 0.9082031
vn -0.4199219 0 0.9082031
vn 0 0 0.9980469
vn 0 0 0.9980469
vn 0 0 0.9980469
vn 0 0 0.9980469
vn 0.9980469 0 0
vn 0.9980469 0 0
vn 0.9980469 0 0
vn 0.9980469 0 0
vn -1 0 0
vn -1 0 0
vn -1 0 0
vn -1 0 0
vn -0.4199219 0 0.9082031
vn -0.4199219 0 0.9082031
vn -0.4199219 0 0.9082031
vn -0.4199219 0 0.9082031
vn 0 0 0.9980469
vn 0 0 0.9980469
vn 0 0 0.9980469
vn 0 0 0.9980469
vn 0.9980469 0 0
vn 0.9980469 0 0
vn 0.9980469 0 0
vn 0.9980469 0 0
vn -1 0 0
vn -1 0 0
vn -1 0 0
vn -1 0 0
vn 0 0 0.9980469
vn 0 0 0.9980469
vn 0 0 0.9980469
vn 0 0 0.9980469
vn 0.9980469 0 0
vn 0.9980469 0 0
vn 0.9980469 0 0
vn 0.9980469 0 0
vn -1 0 0
vn -1 0 0
vn -1 0 0
vn -1 0 0
vn 0.4472656 0 0.8945313
vn 0.4472656 0 0.8945313
vn 0.4472656 0 0.8945313
vn 0.4472656 0 0.8945313
vn -1 0 0
vn -1 0 0
vn -1 0 0
vn -1 0 0
vn 0.9980469 0 0
vn 0.9980469 0 0
vn 0.9980469 0 0
vn 0.9980469 0 0
vn 0 -0.25 0.96875
vn 0 -0.25 0.96875
vn 0 -0.25 0.96875
vn 0 -0.25 0.96875
vn 0 0.7734375 0.6347656
vn 0 0.7734375 0.6347656
vn 0 0.7734375 0.6347656
vn 0 0.7734375 0.6347656
vn -1 0 0
vn -1 0 0
vn -1 0 0
vn -1 0 0
vn 0.9980469 0 0
vn 0.9980469 0 0
vn 0.9980469 0 0
vn 0.9980469 0 0
vn 0 -0.25 0.96875
vn 0 -0.25 0.96875
vn 0 -0.25 0.96875
vn 0 -0.25 0.96875
vt 3.828125 -0.6972656
vt 3.995117 -0.6972656
vt 3.995117 -0.5117188
vt 3.828125 -0.5117188
vt 5.970703 -2.435547
vt 5.973633 -2.368164
vt 5.941406 -2.368164
vt 5.944336 -2.435547
vt 2.46875 -3.5
vt 2.46875 -3.015625
vt 2.125 -3.015625
vt 2.125 -3.5
vt 2.578125 -0.5
vt 2.578125 0
vt 2.03125 0
vt 2.03125 -0.5
vt 2.578125 -0.5
vt 2.578125 0
vt 2.03125 0
vt 2.03125 -0.5
vt -0.34375 4.984375
vt -0.0625 4.984375
vt -0.0625 4.5
vt -0.34375 4.5
vt -0.359375 3.984375
vt -0.0625 3.984375
vt -0.0625 3.5
vt -0.359375 3.5
vt -0.34375 4.984375
vt -0.0625 4.984375
vt -0.0625 4.5
vt -0.34375 4.5
vt -0.359375 3.984375
vt -0.359375 3.5
vt -0.0625 3.5
vt -0.0625 3.984375
vt 2.40625 3
vt 2.40625 2.5
vt 2.56543 2.5
vt 2.56543 3
vt 4.015625 -1
vt 4.578125 -1
vt 4.578125 -0.5
vt 4.015625 -0.5
vt 4.578125 -1
vt 4.015625 -1
vt 4.015625 -0.5
vt 4.578125 -0.5
vt -0.0625 3.984375
vt -0.359375 3.984375
vt -0.359375 3.5
vt -0.0625 3.5
vt 2.578125 0
vt 2.03125 0
vt 2.03125 -0.5
vt 2.578125 -0.5
vt 4.015625 -1
vt 4.578125 -1
vt 4.578125 -0.5
vt 4.015625 -0.5
vt 4.578125 -1
vt 4.015625 -1
vt 4.015625 -0.5
vt 4.578125 -0.5
vt 2.015625 2.5
vt 2.1875 2.5
vt 2.1875 3
vt 2.015625 3
vt 4.015625 -1
vt 4.578125 -1
vt 4.578125 -0.5
vt 4.015625 -0.5
vt 4.578125 -1
vt 4.015625 -1
vt 4.015625 -0.5
vt 4.578125 -0.5
vt -0.0625 3.5
vt -0.359375 3.5
vt -0.359375 3.984375
vt -0.0625 3.984375
vt 2.648438 -1.993164
vt 2.610352 -1.993164
vt 2.610352 -1.90625
vt 2.648438 -1.90625
vt 2.610352 -1.993164
vt 2.648438 -1.993164
vt 2.648438 -1.90625
vt 2.610352 -1.90625
vt 2.041016 -1.140625
vt 2.071289 -1.140625
vt 2.071289 -1.015625
vt 2.041016 -1.015625
vt 3.828125 -0.6972656
vt 3.995117 -0.6972656
vt 3.995117 -0.5117188
vt 3.828125 -0.5117188
vt 2.648438 -2
vt 2.610352 -2
vt 2.610352 -1.897461
vt 2.648438 -1.897461
vt 2.610352 -2
vt 2.648438 -2
vt 2.648438 -1.897461
vt 2.610352 -1.897461
vt 2.041016 -1.140625
vt 2.071289 -1.140625
vt 2.071289 -1.015625
vt 2.041016 -1.015625
f 90/90/90 91/91/91 92/92/92 93/93/93
f 94/94/94 95/95/95 96/96/96 97/97/97
f 98/98/98 99/99/99 100/100/100 101/101/101
f 102/102/102 103/103/103 104/104/104 105/105/105
f 106/106/106 107/107/107 108/108/108 109/109/109
f 110/110/110 111/111/111 112/112/112 113/113/113
f 114/114/114 115/115/115 116/116/116 117/117/117
f 118/118/118 119/119/119 120/120/120 121/121/121
f 122/122/122 123/123/123 124/124/124 125/125/125
f 126/126/126 127/127/127 128/128/128 129/129/129
f 130/130/130 131/131/131 132/132/132 133/133/133
f 134/134/134 135/135/135 136/136/136 137/137/137
f 138/138/138 139/139/139 140/140/140 141/141/141
f 142/142/142 143/143/143 144/144/144 145/145/145
f 146/146/146 147/147/147 148/148/148 149/149/149
f 150/150/150 151/151/151 152/152/152 153/153/153
f 154/154/154 155/155/155 156/156/156 157/157/157
f 158/158/158 159/159/159 160/160/160 161/161/161
f 162/162/162 163/163/163 164/164/164 165/165/165
f 166/166/166 167/167/167 168/168/168 169/169/169
f 170/170/170 171/171/171 172/172/172 173/173/173
f 174/174/174 175/175/175 176/176/176 177/177/177
f 178/178/178 179/179/179 180/180/180 181/181/181
f 182/182/182 183/183/183 184/184/184 185/185/185
f 186/186/186 187/187/187 188/188/188 189/189/189
f 190/190/190 191/191/191 192/192/192 193/193/193
f 194/194/194 195/195/195 196/196/196 197/197/197
v 4 43.82422 32
v -7 43.82422 32
v -9 43.93359 38
v -25 43.71484 38
v -27 43.82422 32
v -38 43.82422 32
vn 0 0.9980469 0
vn 0 0.9980469 0
vn 0 0.9980469 0
vn 0 0.9980469 0
vn 0 0.9980469 0
vn 0 0.9980469 0
vt 5.991211 -2.368164
vt 5.973633 -2.368164
vt 5.970703 -2.435547
vt 5.944336 -2.435547
vt 5.941406 -2.368164
vt 5.923828 -2.368164
f 198/198/198 199/199/199 200/200/200
f 201/201/201 202/202/202 203/203/203
g polygon3
usemtl c1_build01_2_1
v 36 19 -29
v 36 3 -29
v -1 19 -29
v -1 3 -29
v -38 19 -29
v -38 3 -29
vn 0.01367188 0 -1
vn 0.01367188 0 -1
vn 0.01367188 0 -1
vn 0.01367188 0 -1
vn 0.01367188 0 -1
vn 0.01367188 0 -1
vt 5.015625 0.75
vt 5.015625 0.5
vt 5.255859 0.75
vt 5.255859 0.5
vt 5.484375 0.75
vt 5.484375 0.5
f 204/204/204 205/205/205 206/206/206
f 205/205/205 207/207/207 206/206/206
f 206/206/206 207/207/207 208/208/208
f 207/207/207 209/209/209 208/208/208
v 36 3 32
v 36 19 32
v 4 3 32
v 4 19 32
v -7 3 32
v -7 19 32
vn 0 0 0.9980469
vn 0 0 0.9980469
vn 0 0 0.9980469
vn 0 0 0.9980469
vn 0 0 0.9980469
vn 0 0 0.9980469
vt 3.484375 0.5
vt 3.484375 0.75
vt 3.246094 0.5
vt 3.246094 0.75
vt 3.199219 0.5
vt 3.199219 0.75
f 210/210/210 211/211/211 212/212/212
f 211/211/211 213/213/213 212/212/212
f 212/212/212 213/213/213 214/214/214
f 213/213/213 215/215/215 214/214/214
v -34 87.21094 27.91406
v -34 91.30859 27.91406
v 4 87.21094 27.91406
v 4 91.30859 27.91406
v 32 87.21094 27.91406
v 32 91.30859 27.91406
vn 0.01367188 0 -1
vn 0.01367188 0 -1
vn 0.01367188 0 -1
vn 0.01367188 0 -1
vn 0.01367188 0 -1
vn 0.01367188 0 -1
vt 4.025391 -1.015625
vt 4.025391 -1.0625
vt 4.356445 -1.015625
vt 4.356445 -1.0625
vt 4.602539 -1.015625
vt 4.602539 -1.0625
f 216/216/216 217/217/217 218/218/218
f 217/217/217 219/219/219 218/218/218
f 218/218/218 219/219/219 220/220/220
f 219/219/219 221/221/221 220/220/220
v -1 87.21094 -25.46875
v -34.53125 87.21094 -25.46875
v -1 87.21094 0
v -34.53125 87.21094 0
v -1 87.21094 28.49219
v -34.53125 87.21094 28.49219
vn 0 0.9980469 0
vn 0 0.9980469 0
vn 0 0.9980469 0
vn 0 0.9980469 0
vn 0 0.9980469 0
vn 0 0.9980469 0
vt 0.4609375 2.484375
vt 0 2.484375
vt 0.4609375 2.021484
vt 0 2.021484
vt 0.4609375 2.484375
vt 0 2.484375
f 222/222/222 223/223/223 224/224/224
f 223/223/223 225/225/225 224/224/224
f 224/224/224 225/225/225 226/226/226
f 225/225/225 227/227/227 226/226/226
v 32.50781 87.21094 -25.46875
v -1 87.21094 -25.46875
v 32.50781 87.21094 0
v -1 87.21094 0
v 32.50781 87.21094 28.49219
v -1 87.21094 28.49219
vn 0 0.9980469 0
vn 0 0.9980469 0
vn 0 0.9980469 0
vn 0 0.9980469 0
vn 0 0.9980469 0
vn 0 0.9980469 0
vt 0 2.484375
vt 0.4609375 2.484375
vt 0 2.021484
vt 0.4609375 2.021484
vt 0 2.484375
vt 0.4609375 2.484375
f 228/228/228 229/229/229 230/230/230
f 229/229/229 231/231/231 230/230/230
f 230/230/230 231/231/231 232/232/232
f 231/231/231 233/233/233 232/232/232
v -7 91.30859 40
v 4 91.30859 34
v -7 91.30859 31.90234
v 4 91.30859 27.91406
vn 0 0.9980469 0
vn 0 0.9980469 0
vn 0 0.9980469 0
vn 0 0.9980469 0
vt 2.455078 -1.136719
vt 2.546875 -1.136719
vt 2.455078 -1.078125
vt 2.546875 -1.078125
f 234/234/234 235/235/235 236/236/236
f 235/235/235 237/237/237 236/236/236
v -34 91.30859 27.91406
v -40 91.30859 34
v -27 91.30859 31.24219
v -27 91.30859 40
vn 0 0.9980469 0
vn 0 0.9980469 0
vn 0 0.9980469 0
vn 0 0.9980469 0
vt 2.207031 -1.078125
vt 2.207031 -1.136719
vt 2.303711 -1.078125
vt 2.303711 -1.136719
f 238/238/238 239/239/239 240/240/240
f 239/239/239 241/241/241 240/240/240
v -38 3 32
v -27 3 32
v -27 19 32
v -38 19 32
v -10 88.85156 -18
v -10 88.85156 -14
v -6 88.85156 -14
v -6 88.85156 -18
v -18 88.85156 -18.00391
v -18 88.85156 -14
v -10 88.85156 -14
v -10 88.85156 -18
v -6 88.85156 -18
v -6 88.85156 -14
v 16 88.85156 -14
v 16 88.85156 -18.00391
v -6 88.85156 -26
v -10 88.85156 -26
v -10 88.85156 -18
v -6 88.85156 -18
v 15 97.04688 -20.41016
v 29 97.04688 -20.41016
v 29 86.39063 -20.41016
v 15 86.39063 -20.41016
v -31 97.04688 -20.41016
v -17 97.04688 -20.41016
v -17 86.39063 -20.41016
v -31 86.39063 -20.41016
v -34 91.30859 27.91406
v -27 91.30859 31.24219
v -7 91.30859 31.90234
v 4 91.30859 27.91406
v -7 3 32
v -7 19 32
v -27 19 32
v -27 3 32
v -27 91.30859 31.24219
v -27 91.30859 40
v -7 91.30859 40
v -7 91.30859 31.90234
v -40 91.30859 34
v -39 83 33
v -27 83 39
v -27 91.30859 40
v -27 91.30859 40
v -27 83 39
v -7 83 39
v -7 91.30859 40
v 4 91.30859 34
v 4 83 33
v 37 83 33
v 38 91.30859 34
v -34 87.21094 -25
v 32 87.21094 -25
v 32 91.30859 -25
v -34 91.30859 -25
v 32 91.30859 27.91406
v 32 91.30859 -25
v 32 87.21094 -25
v 32 87.21094 27.91406
v -40 91.30859 -31
v -40 91.30859 34
v -34 91.30859 27.91406
v -34 91.30859 -25
v 32 91.30859 -25
v 38 91.30859 -31
v -40 91.30859 -31
v -34 91.30859 -25
v 38 91.30859 34
v 38 91.30859 -31
v 32 91.30859 -25
v 32 91.30859 27.91406
v 37 83 33
v 37 83 -30
v 38 91.30859 -31
v 38 91.30859 34
v 38 91.30859 -31
v 37 83 -30
v -39 83 -30
v -40 91.30859 -31
v -39 83 -30
v -39 83 33
v -40 91.30859 34
v -40 91.30859 -31
v -7 91.30859 40
v -7 83 39
v 4 83 33
v 4 91.30859 34
v -38 3 -29
v -38 3 32
v -38 19 32
v -38 19 -29
v 36 3 32
v 36 3 -29
v 36 19 -29
v 36 19 32
v -34 91.30859 -25
v -34 91.30859 27.91406
v -34 87.21094 27.91406
v -34 87.21094 -25
v 4 91.30859 34
v 38 91.30859 34
v 32 91.30859 27.91406
v 4 91.30859 27.91406
vn 0 0 0.9980469
vn 0 0 0.9980469
vn 0 0 0.9980469
vn 0 0 0.9980469
vn 0 0.9980469 0
vn 0 0.9980469 0
vn 0 0.9980469 0
vn 0 0.9980469 0
vn 0 0.9980469 0
vn 0 0.9980469 0
vn 0 0.9980469 0
vn 0 0.9980469 0
vn 0 0.9980469 0
vn 0 0.9980469 0
vn 0 0.9980469 0
vn 0 0.9980469 0
vn 0 0.9980469 0
vn 0 0.9980469 0
vn 0 0.9980469 0
vn 0 0.9980469 0
vn 0.01367188 0 -1
vn 0.01367188 0 -1
vn 0.01367188 0 -1
vn 0.01367188 0 -1
vn 0.01367188 0 -1
vn 0.01367188 0 -1
vn 0.01367188 0 -1
vn 0.01367188 0 -1
vn 0 0.9980469 0
vn 0 0.9980469 0
vn 0 0.9980469 0
vn 0 0.9980469 0
vn 0 0 0.9980469
vn 0 0 0.9980469
vn 0 0 0.9980469
vn 0 0 0.9980469
vn 0 0.9980469 0
vn 0 0.9980469 0
vn 0 0.9980469 0
vn 0 0.9980469 0
vn -0.4296875 -0.1328125 0.8925781
vn -0.4296875 -0.1328125 0.8925781
vn -0.4296875 -0.1328125 0.8925781
vn -0.4296875 -0.1328125 0.8925781
vn 0 -0.1191406 0.9921875
vn 0 -0.1191406 0.9921875
vn 0 -0.1191406 0.9921875
vn 0 -0.1191406 0.9921875
vn 0 -0.1191406 0.9921875
vn 0 -0.1191406 0.9921875
vn 0 -0.1191406 0.9921875
vn 0 -0.1191406 0.9921875
vn 0 0 0.9980469
vn 0 0 0.9980469
vn 0 0 0.9980469
vn 0 0 0.9980469
vn -1 0 0
vn -1 0 0
vn -1 0 0
vn -1 0 0
vn 0 0.9980469 0
vn 0 0.9980469 0
vn 0 0.9980469 0
vn 0 0.9980469 0
vn 0 0.9980469 0
vn 0 0.9980469 0
vn 0 0.9980469 0
vn 0 0.9980469 0
vn 0 0.9980469 0
vn 0 0.9980469 0
vn 0 0.9980469 0
vn 0 0.9980469 0
vn 0.9921875 -0.1191406 0
vn 0.9921875 -0.1191406 0
vn 0.9921875 -0.1191406 0
vn 0.9921875 -0.1191406 0
vn 0 -0.1191406 -0.9921875
vn 0 -0.1191406 -0.9921875
vn 0 -0.1191406 -0.9921875
vn 0 -0.1191406 -0.9921875
vn -0.9921875 -0.1191406 0
vn -0.9921875 -0.1191406 0
vn -0.9921875 -0.1191406 0
vn -0.9921875 -0.1191406 0
vn 0.4765625 -0.1054688 0.8730469
vn 0.4765625 -0.1054688 0.8730469
vn 0.4765625 -0.1054688 0.8730469
vn 0.4765625 -0.1054688 0.8730469
vn -1 0 0
vn -1 0 0
vn -1 0 0
vn -1 0 0
vn 0.9980469 0 0
vn 0.9980469 0 0
vn 0.9980469 0 0
vn 0.9980469 0 0
vn 0.9980469 0 0
vn 0.9980469 0 0
vn 0.9980469 0 0
vn 0.9980469 0 0
vn 0 0.9980469 0
vn 0 0.9980469 0
vn 0 0.9980469 0
vn 0 0.9980469 0
vt 3.015625 0.5
vt 3.125 0.5
vt 3.125 0.75
vt 3.015625 0.75
vt 1.59375 0.46875
vt 1.5 0.46875
vt 1.5 0.375
vt 1.59375 0.375
vt 2.59375 0.2109375
vt 2.5 0.2109375
vt 2.5 0.3574219
vt 2.59375 0.3574219
vt 1.59375 1.387695
vt 1.5 1.387695
vt 1.5 1.212891
vt 1.59375 1.212891
vt 2.59375 1.202148
vt 2.5 1.202148
vt 2.5 1.366211
vt 2.59375 1.366211
vt 3.609375 -1.8125
vt 3.5 -1.8125
vt 3.5 -1.973633
vt 3.609375 -1.973633
vt 3.609375 -1.8125
vt 3.5 -1.8125
vt 3.5 -1.973633
vt 3.609375 -1.973633
vt 4.029297 -1.0625
vt 4.106445 -1.12207
vt 4.227539 -1.12207
vt 4.294922 -1.0625
vt 3.3125 -0.5
vt 3.3125 -0.25
vt 3.15625 -0.25
vt 3.15625 -0.5
vt 2.303711 -1.078125
vt 2.303711 -1.136719
vt 2.455078 -1.136719
vt 2.455078 -1.078125
vt 4.026367 -1.140625
vt 4.026367 -1.21875
vt 4.109375 -1.21875
vt 4.109375 -1.140625
vt 4.109375 -1.140625
vt 4.109375 -1.21875
vt 4.296875 -1.21875
vt 4.296875 -1.140625
vt 4.399414 -1.140625
vt 4.399414 -1.21875
vt 4.603516 -1.21875
vt 4.603516 -1.140625
vt 4.025391 -1.015625
vt 4.602539 -1.015625
vt 4.602539 -1.0625
vt 4.025391 -1.0625
vt 3.024414 -1.0625
vt 3.599609 -1.0625
vt 3.599609 -1.015625
vt 3.024414 -1.015625
vt 3.599609 -1.140625
vt 3.024414 -1.140625
vt 3.024414 -1.0625
vt 3.599609 -1.0625
vt 3.599609 -1.0625
vt 3.599609 -1.140625
vt 3.024414 -1.140625
vt 3.024414 -1.0625
vt 3.599609 -1.140625
vt 3.024414 -1.140625
vt 3.024414 -1.0625
vt 3.599609 -1.0625
vt 3.023438 -1.21875
vt 3.599609 -1.21875
vt 3.599609 -1.140625
vt 3.023438 -1.140625
vt 3.599609 -1.140625
vt 3.599609 -1.21875
vt 3.023438 -1.21875
vt 3.023438 -1.140625
vt 3.599609 -1.21875
vt 3.023438 -1.21875
vt 3.023438 -1.140625
vt 3.599609 -1.140625
vt 4.296875 -1.140625
vt 4.296875 -1.21875
vt 4.399414 -1.21875
vt 4.399414 -1.140625
vt 4.484375 0.5
vt 4.015625 0.5
vt 4.015625 0.75
vt 4.484375 0.75
vt 4.015625 0.5
vt 4.484375 0.5
vt 4.484375 0.75
vt 4.015625 0.75
vt 3.599609 -1.0625
vt 3.024414 -1.0625
vt 3.024414 -1.015625
vt 3.599609 -1.015625
vt 4.294922 -1.140625
vt 4.602539 -1.140625
vt 4.602539 -1.0625
vt 4.294922 -1.0625
f 242/242/242 243/243/243 244/244/244 245/245/245
f 246/246/246 247/247/247 248/248/248 249/249/249
f 250/250/250 251/251/251 252/252/252 253/253/253
f 254/254/254 255/255/255 256/256/256 257/257/257
f 258/258/258 259/259/259 260/260/260 261/261/261
f 262/262/262 263/263/263 264/264/264 265/265/265
f 266/266/266 267/267/267 268/268/268 269/269/269
f 270/270/270 271/271/271 272/272/272 273/273/273
f 274/274/274 275/275/275 276/276/276 277/277/277
f 278/278/278 279/279/279 280/280/280 281/281/281
f 282/282/282 283/283/283 284/284/284 285/285/285
f 286/286/286 287/287/287 288/288/288 289/289/289
f 290/290/290 291/291/291 292/292/292 293/293/293
f 294/294/294 295/295/295 296/296/296 297/297/297
f 298/298/298 299/299/299 300/300/300 301/301/301
f 302/302/302 303/303/303 304/304/304 305/305/305
f 306/306/306 307/307/307 308/308/308 309/309/309
f 310/310/310 311/311/311 312/312/312 313/313/313
f 314/314/314 315/315/315 316/316/316 317/317/317
f 318/318/318 319/319/319 320/320/320 321/321/321
f 322/322/322 323/323/323 324/324/324 325/325/325
f 326/326/326 327/327/327 328/328/328 329/329/329
f 330/330/330 331/331/331 332/332/332 333/333/333
f 334/334/334 335/335/335 336/336/336 337/337/337
f 338/338/338 339/339/339 340/340/340 341/341/341
f 342/342/342 343/343/343 344/344/344 345/345/345
v -31 86.39063 -20.41016
v -31 86.39063 -7.410156
v -31 97.04688 -20.41016
v -17 86.39063 -7.410156
v -17 86.39063 -20.41016
v -17 97.04688 -20.41016
v 29 86.39063 -7.410156
v 29 86.39063 -20.41016
v 29 97.04688 -20.41016
v 15 86.39063 -20.41016
v 15 86.39063 -7.410156
v 15 97.04688 -20.41016
vn -1 0 0
vn -1 0 0
vn -1 0 0
vn 0.9980469 0 0
vn 0.9980469 0 0
vn 0.9980469 0 0
vn 0.9980469 0 0
vn 0.9980469 0 0
vn 0.9980469 0 0
vn -1 0 0
vn -1 0 0
vn -1 0 0
vt 4.604492 -1.973633
vt 4.495117 -1.973633
vt 4.604492 -1.8125
vt 4.495117 -1.973633
vt 4.604492 -1.973633
vt 4.604492 -1.8125
vt 4.495117 -1.973633
vt 4.604492 -1.973633
vt 4.604492 -1.8125
vt 4.604492 -1.973633
vt 4.495117 -1.973633
vt 4.604492 -1.8125
f 346/346/346 347/347/347 348/348/348
f 349/349/349 350/350/350 351/351/351
f 352/352/352 353/353/353 354/354/354
f 355/355/355 356/356/356 357/357/357
