# Created by MKDS Course Modifier
mtllib Sandbox.mtl
g polygon0
usemtl sand_tex001_1
v 36 2 -36
v -36 2 -36
v -36 2 36
v 36 2 36
vn 0 0.9980469 0
vn 0 0.9980469 0
vn 0 0.9980469 0
vn 0 0.9980469 0
vt 1 0
vt -3 0
vt -3 -4
vt 1 -4
f 1/1/1 2/2/2 3/3/3 4/4/4
g polygon1
usemtl sand_tex004_1
v 25.88086 1.431641 -19.2168
v 29.75391 1.535156 -17.03516
v 34.11914 5.513672 -24.7832
v 30.24609 5.408203 -26.96484
vn -0.21875 0.9121094 0.3457031
vn -0.21875 0.9121094 0.3457031
vn -0.21875 0.9121094 0.3457031
vn -0.21875 0.9121094 0.3457031
vt 0 -1
vt 1 -1
vt 1 0
vt 0 0
f 5/5/5 6/6/6 7/7/7 8/8/8
g polygon2
usemtl h_kage_1
v 22.40039 2.589844 -25.875
v 22.7832 2.589844 -25.875
v 24.71484 2.589844 -32.05078
v 20.46875 2.589844 -32.05078
v 22.40039 2.589844 -25.875
v 16.22461 2.589844 -27.80664
v 16.22461 2.589844 -23.56055
v 22.40039 2.589844 -25.49219
v 22.7832 2.589844 -25.49219
v 28.95898 2.589844 -23.56055
v 28.95898 2.589844 -27.80664
v 22.7832 2.589844 -25.875
v 20.46875 2.589844 -19.31641
v 24.71484 2.589844 -19.31641
v 22.7832 2.589844 -25.49219
v 22.40039 2.589844 -25.49219
vn 0 0.9980469 0
vn 0 0.9980469 0
vn 0 0.9980469 0
vn 0 0.9980469 0
vn 0 0.9980469 0
vn 0 0.9980469 0
vn 0 0.9980469 0
vn 0 0.9980469 0
vn 0 0.9980469 0
vn 0 0.9980469 0
vn 0 0.9980469 0
vn 0 0.9980469 0
vn 0 0.9980469 0
vn 0 0.9980469 0
vn 0 0.9980469 0
vn 0 0.9980469 0
vt 0.09375 -0.1171875
vt 0.09375 -0.1171875
vt 0.09375 -0.1171875
vt 0.09375 -0.1171875
vt 0.09375 -0.1171875
vt 0.09375 -0.1171875
vt 0.09375 -0.1171875
vt 0.09375 -0.1171875
vt 0.09375 -0.1171875
vt 0.09375 -0.1171875
vt 0.09375 -0.1171875
vt 0.09375 -0.1171875
vt 0.09375 -0.1171875
vt 0.09375 -0.1171875
vt 0.09375 -0.1171875
vt 0.09375 -0.1171875
f 9/9/9 10/10/10 11/11/11 12/12/12
f 13/13/13 14/14/14 15/15/15 16/16/16
f 17/17/17 18/18/18 19/19/19 20/20/20
f 21/21/21 22/22/22 23/23/23 24/24/24
v 22.40039 2.589844 -25.875
v 20.46875 2.589844 -32.05078
v 16.22461 2.589844 -27.80664
v 22.7832 2.589844 -25.875
v 28.95898 2.589844 -27.80664
v 24.71484 2.589844 -32.05078
v 24.71484 2.589844 -19.31641
v 28.95898 2.589844 -23.56055
v 22.7832 2.589844 -25.49219
v 16.22461 2.589844 -23.56055
v 20.46875 2.589844 -19.31641
v 22.40039 2.589844 -25.49219
vn 0 0.9980469 0
vn 0 0.9980469 0
vn 0 0.9980469 0
vn 0 0.9980469 0
vn 0 0.9980469 0
vn 0 0.9980469 0
vn 0 0.9980469 0
vn 0 0.9980469 0
vn 0 0.9980469 0
vn 0 0.9980469 0
vn 0 0.9980469 0
vn 0 0.9980469 0
vt 0.09375 -0.1171875
vt 0.09375 -0.1171875
vt 0.09375 -0.1171875
vt 0.09375 -0.1171875
vt 0.09375 -0.1171875
vt 0.09375 -0.1171875
vt 0.09375 -0.1171875
vt 0.09375 -0.1171875
vt 0.09375 -0.1171875
vt 0.09375 -0.1171875
vt 0.09375 -0.1171875
vt 0.09375 -0.1171875
f 25/25/25 26/26/26 27/27/27
f 28/28/28 29/29/29 30/30/30
f 31/31/31 32/32/32 33/33/33
f 34/34/34 35/35/35 36/36/36
g polygon3
usemtl sand_tex002_1
v 36 2 36
v -36 2 36
v -40 2 40
v 40 2 40
v 40 2 -40
v 36 2 -36
v 36 2 36
v 40 2 40
v -40 2 -40
v -36 2 -36
v 36 2 -36
v 40 2 -40
v -40 0 -40
v -40 0 40
v -40 2 40
v -40 2 -40
v 40 0 40
v 40 0 -40
v 40 2 -40
v 40 2 40
v -40 2 -40
v 40 2 -40
v 40 0 -40
v -40 0 -40
v -40 2 40
v -36 2 36
v -36 2 -36
v -40 2 -40
v -40 0 40
v 40 0 40
v 40 2 40
v -40 2 40
vn 0 0.9980469 0
vn 0 0.9980469 0
vn 0 0.9980469 0
vn 0 0.9980469 0
vn 0 0.9980469 0
vn 0 0.9980469 0
vn 0 0.9980469 0
vn 0 0.9980469 0
vn 0 0.9980469 0
vn 0 0.9980469 0
vn 0 0.9980469 0
vn 0 0.9980469 0
vn -1 0 0
vn -1 0 0
vn -1 0 0
vn -1 0 0
vn 0.9980469 0 0
vn 0.9980469 0 0
vn 0.9980469 0 0
vn 0.9980469 0 0
vn 0 0 -1
vn 0 0 -1
vn 0 0 -1
vn 0 0 -1
vn 0 0.9980469 0
vn 0 0.9980469 0
vn 0 0.9980469 0
vn 0 0.9980469 0
vn 0 0 0.9980469
vn 0 0 0.9980469
vn 0 0 0.9980469
vn 0 0 0.9980469
vt 2.824219 -0.1367188
vt -1.738281 -0.1367188
vt -1.9375 -0.3828125
vt 2.996094 -0.3828125
vt 3.492188 -0.3828125
vt 2.996094 -0.01171875
vt -2.59375 -0.08984375
vt -3.085938 -0.3828125
vt 3.492188 -0.3828125
vt 2.996094 -0.01171875
vt -1.9375 -0.01171875
vt -2.429688 -0.3828125
vt 0 -0.859375
vt 1 -0.859375
vt 1 -0.5234375
vt 0 -0.5234375
vt 0 -0.859375
vt 1 -0.859375
vt 1 -0.5234375
vt 0 -0.5234375
vt 0 -0.859375
vt 1 -0.859375
vt 1 -0.5234375
vt 0 -0.5234375
vt 3.886719 -0.3828125
vt 3.390625 -0.078125
vt -1.9375 -0.01171875
vt -2.429688 -0.3828125
vt 0 -0.859375
vt 1 -0.859375
vt 1 -0.5234375
vt 0 -0.5234375
f 37/37/37 38/38/38 39/39/39 40/40/40
f 41/41/41 42/42/42 43/43/43 44/44/44
f 45/45/45 46/46/46 47/47/47 48/48/48
f 49/49/49 50/50/50 51/51/51 52/52/52
f 53/53/53 54/54/54 55/55/55 56/56/56
f 57/57/57 58/58/58 59/59/59 60/60/60
f 61/61/61 62/62/62 63/63/63 64/64/64
f 65/65/65 66/66/66 67/67/67 68/68/68
g polygon4
usemtl sand_tex003_1
v 18.31445 3.685547 -24.25391
v 16.13086 3.685547 -23.86523
v 20.34375 3.685547 -22.41992
v 19.01758 3.685547 -20.85156
v 23.21875 3.685547 -21.16406
v 23.44727 3.685547 -18.96484
vn 0 0.9980469 0
vn 0 0.9980469 0
vn 0 0.9980469 0
vn 0 0.9980469 0
vn 0 0.9980469 0
vn 0 0.9980469 0
vt 1 -0.00390625
vt 1 -0.3710938
vt 0.5 -0.00390625
vt 0.5 -0.3710938
vt 1 -0.00390625
vt 1 -0.3710938
f 69/69/69 70/70/70 71/71/71
f 70/70/70 72/72/72 71/71/71
f 71/71/71 72/72/72 73/73/73
f 72/72/72 74/74/74 73/73/73
v 26.03711 10.66211 -25.91602
v 23.76758 10.66211 -23.6543
v 23.87695 3.427734 -21.85156
v 27.69336 3.427734 -25.64844
v 24.58984 10.66211 -28.77344
v 26.03711 10.66211 -25.91602
v 27.69336 3.427734 -25.64844
v 25.25977 3.427734 -30.45117
v 21.42383 10.66211 -28.2793
v 24.58984 10.66211 -28.77344
v 25.25977 3.427734 -30.45117
v 19.94141 3.427734 -29.62109
v 20.91602 10.66211 -25.11523
v 21.42383 10.66211 -28.2793
v 19.94141 3.427734 -29.62109
v 19.08789 3.427734 -24.30664
v 23.76758 10.66211 -23.6543
v 20.91602 10.66211 -25.11523
v 19.08789 3.427734 -24.30664
v 23.87695 3.427734 -21.85156
v 16.13086 3.685547 -23.86523
v 18.31445 3.685547 -24.25391
v 19.98242 3.685547 -28.58398
v 18.54297 3.685547 -29.61133
v 23.44727 3.685547 -18.96484
v 27.79492 3.685547 -23.35156
v 26.50586 3.685547 -24.4082
v 23.21875 3.685547 -21.16406
vn 0.5507813 0.8300781 0.08789063
vn 0.0859375 0.8339844 0.5449219
vn 0.1523438 0.2421875 0.9589844
vn 0.9609375 0.2265625 0.1542969
vn 0.2519531 0.8339844 -0.4902344
vn 0.5507813 0.8300781 0.08789063
vn 0.9609375 0.2265625 0.1542969
vn 0.4433594 0.2421875 -0.8632813
vn -0.3828125 0.8398438 -0.3867188
vn 0.2519531 0.8339844 -0.4902344
vn 0.4433594 0.2421875 -0.8632813
vn -0.6796875 0.265625 -0.6835938
vn -0.484375 0.8398438 0.2460938
vn -0.3828125 0.8398438 -0.3867188
vn -0.6796875 0.265625 -0.6835938
vn -0.859375 0.265625 0.4375
vn 0.0859375 0.8339844 0.5449219
vn -0.484375 0.8398438 0.2460938
vn -0.859375 0.265625 0.4375
vn 0.1523438 0.2421875 0.9589844
vn 0 0.9980469 0
vn 0 0.9980469 0
vn 0 0.9980469 0
vn 0 0.9980469 0
vn 0 0.9980469 0
vn 0 0.9980469 0
vn 0 0.9980469 0
vn 0 0.9980469 0
vt -0.4804688 -0.984375
vt -0.0703125 -0.984375
vt -0.0703125 -0.390625
vt -0.4804688 -0.390625
vt -0.4804688 -0.984375
vt -0.0703125 -0.984375
vt -0.0703125 -0.390625
vt -0.4804688 -0.390625
vt -0.4804688 -0.984375
vt -0.0703125 -0.984375
vt -0.0703125 -0.390625
vt -0.4804688 -0.390625
vt -0.4804688 -0.984375
vt -0.0703125 -0.984375
vt -0.0703125 -0.390625
vt -0.4804688 -0.390625
vt -0.4804688 -0.984375
vt -0.0703125 -0.984375
vt -0.0703125 -0.390625
vt -0.4804688 -0.390625
vt 0.875 -0.3710938
vt 0.875 -0.00390625
vt 1.3125 -0.00390625
vt 1.3125 -0.3710938
vt 0.875 -0.3710938
vt 1.3125 -0.3710938
vt 1.3125 -0.00390625
vt 0.875 -0.00390625
f 75/75/75 76/76/76 77/77/77 78/78/78
f 79/79/79 80/80/80 81/81/81 82/82/82
f 83/83/83 84/84/84 85/85/85 86/86/86
f 87/87/87 88/88/88 89/89/89 90/90/90
f 91/91/91 92/92/92 93/93/93 94/94/94
f 95/95/95 96/96/96 97/97/97 98/98/98
f 99/99/99 100/100/100 101/101/101 102/102/102
v 23.76758 10.66211 -23.6543
v 26.03711 10.66211 -25.91602
v 23.3457 10.66211 -26.34766
v 26.03711 10.66211 -25.91602
v 24.58984 10.66211 -28.77344
v 23.3457 10.66211 -26.34766
v 24.58984 10.66211 -28.77344
v 21.42383 10.66211 -28.2793
v 23.3457 10.66211 -26.34766
v 21.42383 10.66211 -28.2793
v 20.91602 10.66211 -25.11523
v 23.3457 10.66211 -26.34766
v 20.91602 10.66211 -25.11523
v 23.76758 10.66211 -23.6543
v 23.3457 10.66211 -26.34766
vn 0.0859375 0.8339844 0.5449219
vn 0.5507813 0.8300781 0.08789063
vn 0 0.9980469 0
vn 0.5507813 0.8300781 0.08789063
vn 0.2519531 0.8339844 -0.4902344
vn 0 0.9980469 0
vn 0.2519531 0.8339844 -0.4902344
vn -0.3828125 0.8398438 -0.3867188
vn 0 0.9980469 0
vn -0.3828125 0.8398438 -0.3867188
vn -0.484375 0.8398438 0.2460938
vn 0 0.9980469 0
vn -0.484375 0.8398438 0.2460938
vn 0.0859375 0.8339844 0.5449219
vn 0 0.9980469 0
vt 0.234375 -0.7265625
vt 0.234375 -0.6015625
vt 0.4296875 -0.6640625
vt 0.234375 -0.7265625
vt 0.234375 -0.6015625
vt 0.4296875 -0.6640625
vt 0.234375 -0.7265625
vt 0.234375 -0.6015625
vt 0.4296875 -0.6640625
vt 0.234375 -0.7265625
vt 0.234375 -0.6015625
vt 0.4296875 -0.6640625
vt 0.234375 -0.7265625
vt 0.234375 -0.6015625
vt 0.4296875 -0.6640625
f 103/103/103 104/104/104 105/105/105
f 106/106/106 107/107/107 108/108/108
f 109/109/109 110/110/110 111/111/111
f 112/112/112 113/113/113 114/114/114
f 115/115/115 116/116/116 117/117/117
